<svg width="469" height="243" viewBox="0 0 469 243" fill="none" xmlns="http://www.w3.org/2000/svg">
<path d="M83.5325 222.975L52.5615 74L9.16162 231.5L453.662 33" stroke="black" stroke-width="12" stroke-linecap="square"/>
<path d="M131.582 154.752L124.963 157.631L102.237 140.755L112.024 163.258L105.856 165.941L92.0771 134.261L99.0193 131.241L121.254 147.87L111.636 125.754L117.804 123.071L131.582 154.752ZM153.488 137.48L141.818 142.556L142.458 150.022L135.537 153.032L133.064 116.435L140.543 113.182L165.541 139.983L158.362 143.105L153.488 137.48ZM149.266 132.825L139.889 122.079L141.227 136.321L149.266 132.825ZM155.803 106.545L162.423 103.666L173.724 129.651L189.414 122.827L191.891 128.522L169.582 138.225L155.803 106.545ZM204.248 85.4753L202.252 109.857L207.43 121.764L200.811 124.643L195.632 112.736L176.071 97.7301L183.873 94.3369L196.451 105.275L196.747 88.7377L204.248 85.4753ZM231.049 73.8189L233.489 79.4285L224.011 83.5508L235.349 109.621L228.687 112.519L217.348 86.4485L207.827 90.5895L205.387 84.9799L231.049 73.8189ZM234.424 72.3513L241 69.4909L254.779 101.171L248.202 104.032L234.424 72.3513ZM282.293 86.3934C280.87 89.5852 278.317 91.9819 274.635 93.5835C270.078 95.5652 265.86 95.6616 261.981 93.8728C258.096 92.0696 255.041 88.6104 252.816 83.4951C250.411 77.9643 250.04 73.0566 251.703 68.772C253.148 65.0425 255.862 62.3115 259.846 60.5791C265.176 58.2609 269.834 58.3139 273.819 60.7382C276.034 62.1092 277.621 63.7616 278.581 65.6953L271.962 68.5743C270.871 67.2425 269.821 66.3361 268.811 65.8553C267.009 65.0032 264.926 65.0913 262.562 66.1195C260.155 67.1664 258.68 68.9665 258.138 71.5196C257.589 74.0585 258.088 77.1046 259.633 80.6581C261.179 84.2116 263.068 86.5588 265.303 87.6999C267.545 88.8205 269.798 88.8884 272.062 87.9038C274.383 86.8943 275.823 85.3652 276.38 83.3167C276.698 82.2071 276.724 80.739 276.458 78.9123L283.013 76.0613C283.942 79.7638 283.702 83.2078 282.293 86.3934ZM307.175 79.4312C302.647 81.4004 298.65 81.6732 295.186 80.2494C290.661 78.6219 287.162 74.964 284.688 69.2756C282.164 63.4726 281.875 58.4188 283.819 54.1142C285.14 50.609 288.064 47.8717 292.592 45.9025C297.12 43.9333 301.116 43.6606 304.581 45.0844C309.041 46.6034 312.533 50.2644 315.057 56.0674C317.531 61.7559 317.828 66.8066 315.948 71.2196C314.627 74.7248 311.702 77.462 307.175 79.4312ZM309.727 68.1999C310.419 65.5988 309.989 62.5143 308.438 58.9465C306.892 55.393 304.925 52.9856 302.536 51.7243C300.155 50.4424 297.654 50.3717 295.032 51.5121C292.41 52.6525 290.739 54.5295 290.018 57.1431C289.298 59.7568 289.713 62.8475 291.265 66.4153C292.817 69.983 294.794 72.3945 297.197 73.6496C299.6 74.9047 302.113 74.962 304.735 73.8216C307.357 72.6812 309.021 70.8073 309.727 68.1999Z" fill="black"/>
<path d="M429.646 23.9932H468.041L448.295 58.2595L438.562 39.5L429.646 23.9932Z" fill="black" stroke="black" stroke-linecap="round"/>
</svg>
